<svg version="1.1" xmlns="http://www.w3.org/2000/svg" viewBox="0 0 130.4 326.9">
	<path d="M95.6,224.8c-13.8,3.8-25.7,11-36,19.6c-16.2,13.6-29.8,33.5-41.6,48.8c-0.3-5.8,2.4-13.3,5.1-18
		c5.7-2.2,10.5-5.2,14-9.5c-1-5.8-5.7-7.7-8.4-11.8c3.7-1.4,11.6,2.4,14-3.4c-2.6-11.4-19.8-14.8-29.2-20.2c-4-2.3-4.9-4.6-9.5-2.2
		c-0.9,12.7,8.9,14.7,14.6,20.8c-5.2,3.9-4.5,14.6,1.1,18c-3.4,7.7-11.4,23.3-15.2,33.1c-1.1,2.8-5.3,19.1-4.5,21.9
		c1.8,6.1,10.2,2.8,9-3.9c2.3-0.5,1.8-3.8,3.9-4.5c0-1.1,0-2.3,0-3.4c12.8-16.1,21.4-38,37.1-50.5c4.7-3.7,8.8-8,12.9-11.2
		c5.7-4.4,12.3-7,19.1-10.6c6.6-3.6,14.1-8.1,21.3-8.4c8.5-0.4,10.7,3.9,16.3,7.3c3.1,0,4.6-0.7,8.4,0.6c0.5-1,1.3-1.7,2.3-2.3
		C129.6,220.9,106.7,221.7,95.6,224.8z M70.3,39.6c0.6-1.2,1.4-2.3,1.1-4.5c-1.3-0.6-2.7-1-4.5-1.1c0.2,2,0.9,2.7,0,4.5
		C67.7,39.2,69.6,38.8,70.3,39.6z M66.1,4.5c0.5-1,1.6-1.4,1.1-3.3c-1.5-0.6-3-1.2-5.1-1.1C62.7,2.2,64.7,3.2,66.1,4.5z M58.5,42.4
		c-0.5-3.2-4.3-5.7-7.3-4.5C51.5,41.3,56.1,42.9,58.5,42.4z M89.4,279.7c1.5-19-17.7-17.5-32.6-13.5c-1.8,0.3-2.2-0.8-3.4-1.1
		c-6.8,7.1-3,24.3,8.4,24.7c0.6-2.3,1.2-3.3,3.9-2.2c0.3-0.8-0.7-2.9,0.6-2.8c6.5,4.8,15,13.3,25.8,10.1c-0.7-6.4-5.2-9-6.7-14.6
		C87.1,279.4,87.9,280.9,89.4,279.7z M63,277.5c-0.7-2.1-2-3.6-2.8-5.6c4.8-0.3,8.3-4.1,12.9-2.8c2.7,1.9,1.9,7.1,2.8,10.7
		C71.1,279.7,68.2,275.3,63,277.5z M47.3,40.1c-0.9,7.8-12,17.6-4.5,24.7c2.1-9.8,5-15.4,7.9-24.1C50,40,48.7,40,47.3,40.1z
			M41.4,11.2c3.4,0.4,5.1-0.9,8.4-0.5c2.5,4.3-0.5,9.5-3.4,11.8C51.3,25,54.2,17,60,16.8c0.4,2.1-1,2.4-0.6,4.5
		c1.1,1.2,1.5,3,3.9,2.8c2.6-1.5,3-5.2,6.2-6.2c2.3,0.5,4.4,3.5,7.3,1.7c0.6-3.2-2.4-2.9-3.4-4.5c0.4-2.4,4.5-1.1,4.5-4
		c-4.4-3.7-6.2,4.1-11.2,3.4c-0.1,2.1,0.9,2.6,0,3.4c-0.7,0.7-2,0.6-3.4,0.6c-1.2-6,2.9-6.8,4.5-10.1C66,4.6,62.9,8,60,7.8
		c-5.6-0.3-9.8-6.5-14.6-3.9C44.6,6.1,47,5.3,47,6.7C45.1,8,41.8,7.8,39.7,9C40.9,9.1,40.9,10.5,41.4,11.2z M61.1,10.7
		c-1,2.9-3.7,4.2-5.6,6.2c-1.3-1.7-2.6-6.4-3.4-6.7C55.2,8.2,57.8,10.9,61.1,10.7z M52.9,53.6c1.1,4.5,0.5,9.3,7.9,8.4
		c1-1.5,1.9-2.9,5-2.2c-0.1-2.5-2-3.3-4.5-3.4c-0.8,0.7-0.2,2.7-1.7,2.8c-0.1-0.4-0.5-0.7-1.1-0.6c0.9-3.3,0.9-4.7,1.1-7.8
		c-1.8-1.4-3.4-3-4.5-5.1c-1.3,0-2.6,0-3.9,0c1.8,3.8-1.7,4.3-3.4,6.2C48.5,53.5,50.4,53.9,52.9,53.6z M48.7,14
		c-4.9-0.5-8.2,5.2-9.6,10.1C43.6,22,47.4,19.2,48.7,14z M78.2,41.8c-2.5-4.2-8.9-1.2-12.4,0c-0.8-1.2-0.6-3.5-2.2-3.9
		c-1.6,2.5-2.2,6.5,0.5,8.4c0.5-1.8,3.6-3.9,5.6-2.2c-0.7,0.8-2.8,0.2-2.8,1.7c1.7,2.9-0.9,9.9,0.6,14c2.8-0.4,3.2-0.2,5.6,0.5
		c0.4-2.9,3.9-2.8,2.8-7.3c-1-1.5-4.5-0.4-5.1-2.2c1.4-1.1,3.2-1.7,3.9-3.4c-0.8-0.5-0.8-1.8-1.1-2.8
		C75.1,43.5,77.7,43.7,78.2,41.8z M70.3,57.5c-0.1-1.4-0.1-2.7,0.6-3.4C72.7,54.3,72.2,57.8,70.3,57.5z M19.7,185.3
		c25.4,3.3,51.6-20.6,76.4-14c-0.5,2.3-2.6,3-2.8,5.6c7.9,0.2,8.6,7.8,16.8,6.2c4.2-2.3,3.9-9.2,6.7-12.9c-2.9-9.9-0.2-26.4-5-35.3
		c-3-5.5-9.6-9.3-15.7-8.4c0,0.9,0.1,2-1.1,1.7c2.3,8.6,5.7,19.9,2.8,30.3c-11.5-1.1-25,1.3-36,3.9c0-7.4-0.9-14.2,0-21.3
		c1.1-8.9,7.2-15.7,7.9-23c0.8-9-3.8-12.8-6.2-19.6c-4.2-1.6-5.6-6-11.8-5.6c-4.6,5.7,2.3,11,2.2,17.4c0,4.1-3.7,7.7-5.1,11.8
		c-4.7,14.2,0.1,31.1-2.8,46c-9,1.3-19.8,6.5-28.6,2.8c-2.1-7.3-2.4-16.4-9.6-18.5C0.1,165.3,7.4,183.7,19.7,185.3z M100.1,162.9
		c-1.5,0-1.1,0.9-2.2,0C97.4,160.7,100.5,160.7,100.1,162.9z M92.2,238.8c5.6,21.7,14.9,55-0.6,72.3c-5.1,2.6-13,7-20.2,3.9
		c-0.1,0.8,0.2,2.1-0.6,2.2c-5.4-3.8-12.8-5.5-14.6-12.9c-1.8,0.3-2.3-0.7-2.8-1.7c1.6-0.7,0.9-3.3-0.5-3.9c-0.5,1.5,0,6-2.3,7.3
		c0.2-1.9,0.9-3.2,0.6-5.6c-1.4-0.2-3.1-0.1-5.1-1.1c0.5,3.7-1.8,4.3-0.6,7.3c3-1.3,1.6,0.8,2.8,2.3c0.2-0.7,0.7-1.1,1.7-1.1
		c0,0.8,0,1.5,0,2.2c2.1,0.1,1.6,0.6,3.4,0c-0.5,1.5,1.7,3.1,0,3.9c0.5-2.1-1.5-1.9-2.2-2.8c2.1,3.7,5,6.6,8.4,9
		c-0.4-1.6-2-2.8,0-4c2.2,0.9,0.9,2.4,1.7,4c1.4,0.2,1.2-1,2.8-0.6c0.1,1.5-0.9,1.1,0,2.2c3.1,0.8,5.2,2.6,7.3,4.5
		c9.3,0.8,14.8,0.9,21.9-0.6c28-5.7,20.3-66.9,8.4-83.6C98.5,241.3,96.5,236.7,92.2,238.8z"/>
</svg>
